 <svg version="1.0" xmlns="http://www.w3.org/2000/svg" width="700.000000pt" height="525.000000pt" viewBox="0 0 700.000000 525.000000" preserveAspectRatio="xMidYMid meet">
<metadata>
Created by potrace 1.12, written by Peter Selinger 2001-2015
</metadata>
<g transform="translate(0.000000,525.000000) scale(0.100000,-0.100000)" fill="#000000" stroke="none">
<path d="M0 2625 l0 -2625 560 0 559 0 3 87 3 88 90 52 c50 29 97 52 105 52 8
1 56 -23 105 -52 l90 -53 3 -87 3 -87 699 0 700 0 0 143 0 143 43 42 43 42
172 0 173 0 -3 -185 -3 -185 793 0 c436 0 791 3 788 8 -2 4 -50 46 -105 92
-98 82 -101 86 -101 127 0 40 3 43 103 128 56 48 107 89 114 92 7 3 62 -37
123 -88 103 -88 110 -96 110 -130 0 -34 -8 -43 -107 -130 l-107 -94 457 -3
c251 -1 662 -1 912 0 l456 3 -78 45 -78 46 0 119 0 119 95 54 c90 53 95 54
120 40 15 -8 57 -32 93 -52 l67 -38 0 516 c0 284 -2 516 -5 516 -2 0 -42 -22
-89 -50 -47 -27 -88 -50 -93 -50 -4 1 -48 25 -98 54 l-90 52 -3 120 -2 119 96
54 c110 61 90 62 222 -14 l62 -36 0 515 c0 284 -3 516 -6 516 -3 0 -43 -23
-90 -50 -47 -28 -87 -50 -90 -50 -3 0 -48 25 -100 55 l-94 56 0 117 0 117 96
54 c109 61 89 62 222 -14 l62 -36 0 515 c0 284 -3 516 -6 516 -3 0 -43 -22
-89 -50 -46 -27 -86 -50 -89 -50 -4 0 -50 25 -102 56 l-94 55 0 117 0 117 84
48 c47 27 93 51 103 53 10 2 56 -17 103 -44 l85 -49 3 510 c1 281 0 512 -2
515 -3 2 -44 -19 -91 -47 -48 -28 -88 -51 -90 -51 -17 0 -195 115 -195 126 0
12 -114 14 -763 14 l-763 0 -60 -52 c-32 -28 -66 -58 -75 -65 -15 -13 -26 -6
-92 51 l-75 66 -721 0 -721 0 0 -108 0 -108 -39 -38 c-38 -37 -39 -38 -138
-43 -55 -3 -134 -2 -176 2 l-77 7 0 144 0 144 -747 0 -748 0 45 -29 45 -28 0
-113 0 -114 -97 -57 -96 -57 -99 57 -98 56 -3 113 -3 113 31 17 c78 43 96 41
-542 42 l-608 0 0 -2625z m4136 2214 l94 -50 0 -117 -1 -117 -92 -55 c-50 -30
-96 -55 -102 -55 -6 0 -52 25 -102 55 l-92 55 -1 117 0 117 93 50 c50 28 96
51 101 51 5 0 51 -23 102 -51z m1817 -6 c54 -15 64 -22 103 -76 41 -55 44 -64
44 -121 0 -57 -3 -65 -44 -117 -39 -48 -53 -58 -104 -73 -59 -18 -60 -18 -123
3 -54 19 -70 30 -101 71 -35 46 -38 54 -38 118 0 64 3 73 38 122 32 45 47 56
93 70 69 23 63 23 132 3z m-3641 -290 c53 -93 98 -174 100 -181 2 -9 -34 -30
-100 -59 l-102 -46 -101 43 c-55 24 -102 47 -105 52 -4 6 84 165 193 351 2 4
7 7 11 7 4 0 51 -75 104 -167z m-1846 27 c51 -18 64 -27 97 -74 33 -49 37 -61
37 -119 0 -60 -3 -68 -40 -115 -34 -42 -51 -54 -103 -71 -60 -20 -65 -20 -112
-5 -36 11 -63 30 -97 67 l-48 51 0 75 c0 73 2 78 39 126 31 41 48 53 92 66 70
22 66 22 135 -1z m4612 -384 c86 -73 92 -81 92 -116 0 -34 -7 -43 -97 -121
-53 -46 -105 -90 -114 -97 -16 -11 -32 0 -128 83 -106 92 -111 98 -111 135 0
38 5 44 112 135 110 94 111 95 132 77 12 -10 63 -54 114 -96z m-1728 -155 l0
-179 -40 -36 -40 -36 -175 0 -175 0 0 177 0 177 43 38 42 37 173 1 172 0 0
-179z m-1925 -65 l90 -52 0 -114 0 -114 -97 -58 -97 -59 -101 58 -100 58 2
114 3 115 90 52 c50 29 97 53 105 53 8 0 56 -24 105 -53z m2711 -407 l94 -50
0 -117 0 -117 -92 -55 c-51 -30 -97 -55 -103 -55 -5 0 -52 25 -103 55 l-92 54
0 117 0 118 93 50 c50 28 96 51 101 51 5 0 51 -23 102 -51z m1816 -6 c56 -16
64 -22 104 -77 40 -55 44 -65 44 -121 0 -56 -3 -64 -44 -115 -38 -49 -51 -58
-105 -75 -59 -17 -64 -18 -114 -2 -63 21 -64 21 -110 78 -35 43 -37 50 -37
115 0 63 3 74 36 121 30 44 44 55 92 72 71 24 61 24 134 4z m-3639 -190 c52
-93 97 -174 99 -181 2 -7 -37 -31 -100 -59 l-103 -46 -100 43 c-55 24 -102 47
-105 52 -3 5 16 45 42 91 112 197 155 267 163 267 5 0 52 -75 104 -167z
m-1850 -71 c50 -16 63 -26 97 -73 37 -50 39 -59 40 -123 0 -67 -1 -70 -44
-121 -37 -42 -55 -54 -104 -69 -58 -18 -60 -18 -119 4 -48 17 -67 31 -97 69
-34 45 -36 52 -36 122 0 70 2 77 38 124 31 40 47 52 92 66 70 22 65 22 133 1z
m4620 -391 c81 -68 87 -76 87 -111 0 -35 -6 -43 -102 -127 -57 -49 -109 -92
-115 -97 -8 -4 -53 27 -122 86 -107 91 -110 94 -110 135 -1 42 0 44 110 137
l112 95 26 -22 c15 -12 66 -55 114 -96z m-1733 -150 l0 -178 -45 -42 -45 -41
-164 0 c-111 0 -167 4 -172 11 -4 6 -6 89 -6 183 l1 171 43 37 43 38 173 0
172 0 0 -179z m-1927 39 l97 -55 -2 -115 -3 -115 -97 -58 -97 -58 -101 58
-100 58 2 115 3 114 95 57 c52 32 97 57 101 56 3 -1 49 -27 102 -57z m2713
-512 l94 -52 0 -115 0 -116 -94 -57 c-52 -32 -98 -58 -102 -58 -4 0 -49 26
-100 58 l-94 57 0 116 0 115 93 52 c50 28 96 52 101 52 5 0 51 -23 102 -52z
m1837 -13 c34 -10 50 -24 84 -71 38 -53 42 -65 43 -119 0 -56 -3 -64 -43 -115
-36 -46 -53 -58 -99 -73 -69 -22 -75 -21 -140 4 -39 15 -63 33 -90 69 -35 45
-38 53 -38 114 0 60 4 72 36 121 33 50 43 57 98 74 62 19 73 19 149 -4z
m-3660 -182 c52 -93 97 -174 99 -181 4 -18 -189 -105 -218 -98 -12 3 -61 24
-109 46 -68 31 -86 44 -81 56 4 9 30 58 60 108 29 50 72 124 95 164 23 39 46
72 50 72 5 0 52 -75 104 -167z m-1851 31 c52 -15 62 -22 98 -73 37 -52 40 -61
40 -124 0 -62 -3 -71 -37 -117 -32 -42 -48 -52 -103 -71 l-66 -22 -61 23 c-52
19 -67 30 -102 77 -36 49 -41 62 -41 111 0 47 6 64 38 114 32 51 44 60 92 77
69 24 71 24 142 5z m4599 -476 c102 -86 109 -94 109 -128 0 -34 -8 -43 -102
-126 -57 -50 -109 -93 -115 -98 -8 -4 -53 27 -122 86 -106 90 -110 94 -110
135 -1 41 1 43 106 132 59 50 111 91 116 91 5 0 58 -41 118 -92z m-1711 -167
l0 -178 -45 -42 -45 -41 -170 0 -170 0 -2 163 c0 89 -1 170 0 179 1 9 21 35
44 57 l43 40 173 1 172 0 0 -179z m-1925 36 l90 -53 3 -114 2 -115 -100 -58
-100 -58 -100 58 -101 58 3 115 3 114 90 53 c50 29 97 53 105 53 9 0 56 -24
105 -53z m2711 -509 l94 -53 0 -115 0 -115 -94 -57 c-52 -32 -98 -58 -102 -58
-4 0 -49 26 -100 58 l-94 57 0 115 0 115 93 52 c50 28 96 52 100 52 5 1 51
-23 103 -51z m1818 -8 c61 -19 68 -25 106 -80 36 -52 40 -65 40 -119 0 -55 -3
-63 -42 -111 -34 -41 -56 -57 -103 -74 l-59 -23 -64 21 c-54 18 -68 27 -102
73 -37 48 -40 57 -40 118 0 58 4 71 36 120 33 50 43 57 98 75 34 10 62 19 62
19 1 1 32 -8 68 -19z m-3639 -192 c54 -95 100 -176 102 -180 4 -8 -109 -63
-180 -89 -34 -12 -41 -10 -132 31 -53 24 -98 47 -101 51 -4 8 26 63 158 292
21 37 43 67 47 67 5 0 53 -78 106 -172z m-1853 36 c54 -16 63 -22 99 -75 36
-53 39 -63 39 -124 0 -62 -3 -70 -37 -115 -32 -41 -49 -53 -102 -71 -63 -21
-64 -21 -123 -3 -52 15 -65 25 -104 75 -40 53 -44 62 -44 115 0 49 5 66 38
116 32 51 44 60 92 77 69 24 71 24 142 5z"></path>
<path d="M3957 4718 l-76 -133 80 -3 c44 -2 113 -2 154 0 l74 3 -73 128 c-40
70 -75 130 -78 133 -3 2 -39 -55 -81 -128z"></path>
<path d="M3922 4803 l-62 -35 0 -75 c0 -41 4 -72 9 -69 11 7 124 206 119 211
-1 2 -31 -12 -66 -32z"></path>
<path d="M4080 4835 c0 -12 112 -205 122 -211 5 -3 8 25 6 71 l-3 76 -62 35
c-35 19 -63 32 -63 29z"></path>
<path d="M3968 4510 l64 -41 46 27 c97 56 99 54 -43 54 l-130 0 63 -40z"></path>
<path d="M5822 4803 c-29 -10 -51 -27 -67 -51 -29 -43 -30 -48 -10 -55 18 -7
135 77 135 97 0 23 -12 24 -58 9z"></path>
<path d="M5910 4796 c0 -15 17 -35 56 -63 53 -39 84 -46 84 -19 0 26 -58 80
-98 92 -40 11 -42 11 -42 -10z"></path>
<path d="M5833 4710 l-52 -40 20 -60 c19 -55 23 -60 56 -66 20 -4 52 -3 71 2
32 8 37 15 55 67 10 32 17 59 16 61 -69 52 -103 76 -108 76 -3 0 -29 -18 -58
-40z"></path>
<path d="M5720 4629 c0 -41 6 -60 26 -86 23 -30 28 -33 40 -21 13 12 11 23 -9
77 -13 35 -31 68 -40 73 -15 8 -17 2 -17 -43z"></path>
<path d="M6038 4666 c-20 -19 -52 -120 -45 -140 10 -25 22 -20 51 22 19 28 26
51 26 85 0 48 -8 57 -32 33z"></path>
<path d="M5810 4505 c-10 -13 -7 -17 23 -30 44 -18 63 -19 108 -4 44 15 44 16
29 34 -17 21 -142 21 -160 0z"></path>
<path d="M2108 4498 l-77 -133 71 -33 c39 -18 77 -31 85 -28 11 5 13 38 12
166 0 88 -4 160 -8 160 -3 0 -41 -60 -83 -132z"></path>
<path d="M2220 4465 c0 -107 4 -165 10 -165 14 0 133 50 144 60 8 8 -133 269
-146 270 -5 0 -8 -74 -8 -165z"></path>
<path d="M327 4548 c-27 -7 -45 -22 -67 -53 -35 -52 -35 -51 -10 -58 25 -6
142 79 138 101 -4 20 -15 22 -61 10z"></path>
<path d="M410 4538 c0 -18 15 -35 59 -66 55 -39 91 -47 91 -20 0 18 -54 80
-77 89 -61 23 -73 22 -73 -3z"></path>
<path d="M338 4454 c-53 -40 -54 -46 -29 -119 l18 -50 69 0 69 0 22 60 c12 33
22 63 22 66 1 9 -102 79 -114 79 -6 0 -31 -17 -57 -36z"></path>
<path d="M220 4368 c1 -44 6 -59 30 -87 24 -28 32 -32 44 -22 26 22 -30 161
-66 161 -4 0 -8 -24 -8 -52z"></path>
<path d="M538 4406 c-8 -7 -22 -41 -33 -75 -16 -54 -17 -64 -4 -76 13 -13 19
-10 47 27 26 34 32 51 32 90 0 51 -14 62 -42 34z"></path>
<path d="M317 4253 c-17 -16 -4 -32 38 -46 40 -14 49 -14 87 1 55 20 53 19 38
37 -9 11 -32 15 -85 15 -39 0 -75 -3 -78 -7z"></path>
<path d="M4897 4165 c-20 -42 -37 -79 -37 -83 0 -5 18 -18 40 -31 l39 -22 43
22 c24 12 44 23 46 24 6 5 -78 165 -86 165 -4 0 -24 -34 -45 -75z"></path>
<path d="M4813 4157 c-34 -29 -64 -58 -67 -65 -11 -25 4 -31 42 -18 30 10 43
23 70 74 18 34 29 62 25 61 -4 0 -36 -23 -70 -52z"></path>
<path d="M5000 4205 c0 -3 13 -32 30 -64 20 -41 36 -60 54 -65 13 -3 31 -9 40
-12 11 -4 16 0 16 13 0 12 -24 41 -57 70 -62 53 -83 68 -83 58z"></path>
<path d="M4791 4046 l-33 -12 68 -60 c113 -98 104 -95 104 -28 l0 59 -50 28
c-28 15 -51 27 -53 26 -1 0 -17 -6 -36 -13z"></path>
<path d="M5008 4034 l-48 -24 0 -61 0 -61 28 24 c89 75 132 114 132 120 0 4
-59 30 -64 28 -1 -1 -22 -12 -48 -26z"></path>
<path d="M2996 4169 c-14 -11 -26 -25 -26 -30 0 -5 60 -9 139 -9 126 0 141 2
165 21 41 32 20 39 -125 39 -113 0 -129 -2 -153 -21z"></path>
<path d="M3298 4138 c-28 -27 -28 -28 -28 -168 0 -77 4 -140 8 -140 5 0 18 11
31 23 20 23 21 31 19 168 l-3 144 -27 -27z"></path>
<path d="M2952 4102 c-9 -7 -12 -44 -10 -153 l3 -144 150 0 150 0 3 139 c2 93
-1 143 -9 152 -9 11 -43 14 -143 14 -72 0 -137 -4 -144 -8z"></path>
<path d="M1271 3940 l-42 -50 91 0 92 0 -42 50 c-23 28 -45 50 -49 50 -4 0
-27 -22 -50 -50z"></path>
<path d="M1203 3930 c-38 -23 -41 -30 -14 -30 10 0 26 11 35 25 20 30 20 30
-21 5z"></path>
<path d="M1416 3926 c11 -14 27 -26 37 -26 24 0 13 17 -25 36 l-30 16 18 -26z"></path>
<path d="M1151 3833 l1 -48 14 34 c15 34 13 61 -6 61 -5 0 -10 -21 -9 -47z"></path>
<path d="M1464 3866 c-3 -7 2 -29 10 -47 l14 -34 1 48 c1 44 -13 64 -25 33z"></path>
<path d="M1230 3855 c0 -9 85 -155 90 -155 5 0 90 146 90 155 0 3 -40 5 -90 5
-49 0 -90 -2 -90 -5z"></path>
<path d="M1182 3785 c-12 -31 -22 -63 -22 -70 0 -14 43 -25 97 -25 l35 0 -37
68 c-21 37 -41 71 -45 75 -4 4 -17 -17 -28 -48z"></path>
<path d="M1393 3769 c-47 -84 -44 -87 45 -74 41 6 44 8 39 33 -3 15 -14 47
-24 71 l-19 44 -41 -74z"></path>
<path d="M1220 3662 c0 -7 30 -25 83 -50 4 -2 7 6 7 17 0 12 -6 23 -12 25 -34
11 -78 15 -78 8z"></path>
<path d="M1370 3661 c-26 -4 -36 -12 -38 -28 -2 -13 -1 -23 3 -23 12 0 85 45
85 53 0 4 -3 6 -7 6 -5 -1 -24 -4 -43 -8z"></path>
<path d="M3975 3468 c-32 -57 -66 -118 -77 -135 l-20 -33 151 0 c84 0 151 4
151 9 0 7 -135 249 -145 259 -1 1 -28 -44 -60 -100z"></path>
<path d="M3923 3523 l-63 -35 0 -74 c0 -42 4 -73 9 -70 11 7 124 206 119 210
-1 2 -31 -12 -65 -31z"></path>
<path d="M4080 3553 c0 -13 113 -203 121 -203 11 0 12 120 1 136 -8 12 -122
75 -122 67z"></path>
<path d="M3940 3247 c19 -13 49 -32 66 -41 l30 -18 57 36 c31 20 57 39 57 41
0 3 -55 5 -122 5 l-123 0 35 -23z"></path>
<path d="M5822 3523 c-29 -10 -51 -27 -67 -51 -29 -43 -30 -48 -10 -55 18 -7
135 77 135 97 0 23 -12 24 -58 9z"></path>
<path d="M5910 3511 c0 -24 105 -102 126 -94 46 17 -47 113 -111 113 -8 0 -15
-9 -15 -19z"></path>
<path d="M5833 3430 l-52 -40 22 -63 22 -62 61 -3 c41 -2 64 1 71 10 12 15 47
118 42 122 -71 53 -103 76 -108 76 -3 0 -29 -18 -58 -40z"></path>
<path d="M5720 3347 c0 -44 5 -58 30 -87 23 -27 31 -32 38 -21 13 18 -28 140
-50 152 -16 9 -18 4 -18 -44z"></path>
<path d="M6049 3392 c-19 -3 -63 -110 -57 -138 5 -30 24 -26 52 11 22 29 27
44 24 83 -2 38 -6 47 -19 44z"></path>
<path d="M5814 3226 c-18 -14 -17 -15 20 -31 21 -9 46 -17 55 -18 24 -1 91 23
91 33 0 30 -130 42 -166 16z"></path>
<path d="M2111 3324 c-40 -69 -70 -131 -68 -137 5 -13 135 -72 143 -65 8 9 14
328 6 328 -4 0 -41 -57 -81 -126z"></path>
<path d="M2220 3285 c0 -125 3 -165 13 -165 11 0 136 56 145 65 6 5 -142 264
-150 265 -5 0 -8 -74 -8 -165z"></path>
<path d="M330 3264 c-33 -10 -53 -25 -73 -53 -26 -38 -27 -40 -9 -50 27 -14
132 62 132 96 0 13 -1 23 -2 22 -2 0 -23 -7 -48 -15z"></path>
<path d="M410 3259 c1 -30 109 -113 134 -103 22 8 20 15 -13 61 -18 25 -40 42
-58 46 -15 3 -36 9 -45 12 -14 6 -18 2 -18 -16z"></path>
<path d="M340 3174 c-25 -20 -46 -40 -48 -45 -7 -18 30 -109 48 -119 10 -6 34
-10 52 -10 65 0 76 8 97 71 l20 59 -50 40 c-28 22 -56 40 -62 39 -7 0 -32 -16
-57 -35z"></path>
<path d="M220 3093 c0 -34 7 -57 26 -85 46 -66 68 -37 39 50 -32 92 -65 110
-65 35z"></path>
<path d="M543 3123 c-10 -10 -27 -44 -37 -76 -16 -46 -17 -60 -7 -70 10 -9 20
-4 47 27 27 32 34 48 34 82 0 50 -12 62 -37 37z"></path>
<path d="M320 2965 c-12 -14 -11 -18 1 -26 47 -29 164 -15 157 19 -5 25 -139
30 -158 7z"></path>
<path d="M4897 2885 c-20 -42 -37 -80 -37 -85 0 -5 19 -19 42 -31 l41 -21 41
23 c23 12 42 23 44 25 6 4 -78 164 -86 164 -4 0 -24 -34 -45 -75z"></path>
<path d="M4805 2866 c-52 -48 -67 -67 -59 -76 9 -9 20 -8 47 4 28 11 43 28 67
75 16 34 27 61 23 61 -5 0 -39 -29 -78 -64z"></path>
<path d="M5000 2926 c0 -4 13 -33 30 -65 20 -41 36 -60 54 -65 13 -3 31 -9 40
-12 11 -4 16 0 16 14 0 11 -22 38 -52 63 -75 63 -88 72 -88 65z"></path>
<path d="M4798 2768 c-16 -5 -28 -13 -28 -18 0 -4 28 -32 63 -61 106 -92 97
-90 97 -22 l0 59 -52 25 c-42 21 -59 24 -80 17z"></path>
<path d="M5008 2753 l-48 -26 0 -60 0 -59 28 24 c149 125 146 122 115 131 -10
2 -25 7 -33 11 -8 3 -36 -6 -62 -21z"></path>
<path d="M2987 2882 c-10 -10 -17 -22 -17 -25 0 -4 64 -7 143 -7 140 0 144 1
167 25 l23 25 -150 0 c-133 0 -152 -2 -166 -18z"></path>
<path d="M3298 2853 c-28 -29 -28 -30 -28 -166 0 -75 4 -137 8 -137 5 0 18 11
31 23 20 23 21 31 19 166 l-3 142 -27 -28z"></path>
<path d="M2942 2673 l3 -148 147 -3 c175 -3 160 -19 156 168 l-3 125 -153 3
-153 3 3 -148z"></path>
<path d="M1277 2766 c-20 -25 -37 -47 -37 -50 0 -3 39 -6 86 -6 l85 0 -42 50
c-23 28 -45 50 -48 50 -4 0 -23 -20 -44 -44z"></path>
<path d="M1194 2746 c-10 -8 -15 -18 -11 -22 4 -4 17 2 30 14 24 25 12 30 -19
8z"></path>
<path d="M1425 2740 c10 -11 25 -20 34 -20 12 1 10 5 -8 20 -30 26 -49 26 -26
0z"></path>
<path d="M1150 2653 l1 -48 15 34 c15 36 13 61 -6 61 -5 0 -10 -21 -10 -47z"></path>
<path d="M1464 2687 c-5 -14 11 -67 21 -67 3 0 5 18 5 40 0 38 -15 54 -26 27z"></path>
<path d="M1265 2613 c56 -104 54 -104 103 -13 l43 80 -91 0 -92 0 37 -67z"></path>
<path d="M1181 2602 c-11 -33 -21 -64 -21 -69 0 -9 66 -23 112 -23 18 0 17 5
-12 58 -58 101 -54 100 -79 34z"></path>
<path d="M1392 2588 c-23 -40 -39 -74 -37 -76 9 -9 125 11 125 21 0 11 -38
118 -44 124 -1 2 -21 -30 -44 -69z"></path>
<path d="M1225 2480 c3 -4 21 -17 40 -29 31 -18 36 -19 42 -5 3 8 2 19 -3 23
-12 12 -86 22 -79 11z"></path>
<path d="M1375 2483 c-37 -6 -50 -17 -42 -37 6 -14 11 -13 42 5 34 20 55 41
38 38 -4 -1 -21 -4 -38 -6z"></path>
<path d="M4024 2268 c-5 -7 -39 -65 -75 -128 l-66 -115 79 -3 c43 -2 112 -2
152 0 l73 3 -67 119 c-78 135 -84 143 -96 124z"></path>
<path d="M3918 2239 l-58 -29 0 -70 c0 -39 4 -70 9 -70 5 0 24 26 41 58 18 31
44 76 57 100 14 23 21 42 16 42 -4 -1 -34 -14 -65 -31z"></path>
<path d="M4102 2228 c14 -24 39 -69 57 -100 18 -32 37 -58 42 -58 11 0 12 120
1 136 -7 11 -105 64 -118 64 -3 0 5 -19 18 -42z"></path>
<path d="M3910 1986 c0 -2 28 -20 62 -41 70 -41 63 -42 158 22 l35 23 -128 0
c-70 0 -127 -2 -127 -4z"></path>
<path d="M5804 2236 c-40 -18 -83 -84 -63 -97 8 -5 16 -9 19 -9 14 0 120 92
120 105 0 19 -34 19 -76 1z"></path>
<path d="M5907 2243 c-14 -13 -6 -23 52 -67 64 -49 78 -54 87 -31 16 42 -108
130 -139 98z"></path>
<path d="M5833 2149 c-29 -22 -53 -41 -53 -43 0 -11 35 -103 43 -113 6 -8 34
-13 72 -13 l62 0 22 59 c11 32 21 62 21 67 -1 9 -81 71 -102 79 -7 3 -37 -13
-65 -36z"></path>
<path d="M6048 2112 c-17 -3 -20 -8 -48 -89 -15 -42 -16 -55 -6 -68 11 -16 16
-13 45 23 28 36 32 48 29 89 -2 39 -6 48 -20 45z"></path>
<path d="M5715 2090 c-10 -33 3 -82 30 -112 48 -56 64 -23 31 65 -24 65 -49
84 -61 47z"></path>
<path d="M5812 1948 c-19 -19 -15 -25 33 -41 40 -14 50 -14 90 0 25 8 45 18
45 22 0 21 -30 31 -90 31 -38 0 -71 -5 -78 -12z"></path>
<path d="M2112 2043 c-40 -70 -71 -131 -69 -137 5 -12 135 -71 142 -65 6 6 11
329 5 329 -3 0 -38 -57 -78 -127z"></path>
<path d="M2220 2005 c0 -125 3 -165 13 -165 22 1 142 59 142 69 0 15 -139 260
-147 261 -5 0 -8 -74 -8 -165z"></path>
<path d="M330 2084 c-32 -10 -53 -25 -72 -53 -45 -64 -9 -71 70 -13 35 25 52
44 52 60 0 12 -1 22 -2 21 -2 0 -23 -7 -48 -15z"></path>
<path d="M410 2081 c0 -25 97 -101 128 -101 29 0 28 9 -7 57 -18 25 -40 42
-58 46 -15 3 -36 9 -45 12 -14 5 -18 2 -18 -14z"></path>
<path d="M340 1994 c-25 -20 -46 -39 -48 -43 -1 -4 6 -31 16 -61 l19 -55 69
-3 70 -3 21 61 22 60 -50 40 c-28 22 -56 40 -62 39 -7 0 -32 -16 -57 -35z"></path>
<path d="M220 1911 c0 -39 6 -57 27 -83 15 -18 28 -35 30 -37 2 -3 9 1 15 7 9
9 7 26 -7 73 -30 99 -65 120 -65 40z"></path>
<path d="M547 1947 c-20 -15 -58 -122 -50 -142 8 -23 19 -18 52 24 45 57 43
152 -2 118z"></path>
<path d="M322 1788 c-19 -19 -15 -25 33 -38 55 -16 128 2 123 29 -4 21 -136
29 -156 9z"></path>
<path d="M4897 1605 c-20 -42 -37 -80 -37 -85 0 -5 19 -19 42 -31 l42 -21 43
23 c24 13 43 25 43 27 0 11 -82 162 -88 162 -4 0 -24 -34 -45 -75z"></path>
<path d="M4808 1589 c-87 -78 -92 -108 -13 -75 26 11 41 29 65 75 16 34 27 61
23 61 -5 0 -38 -28 -75 -61z"></path>
<path d="M5000 1646 c0 -4 13 -32 29 -64 23 -45 36 -60 63 -70 45 -16 48 -15
48 6 0 10 -24 38 -52 63 -74 62 -88 72 -88 65z"></path>
<path d="M4791 1484 l-33 -14 72 -62 c103 -90 100 -89 100 -21 l0 59 -53 26
c-49 24 -56 25 -86 12z"></path>
<path d="M5006 1472 l-46 -25 0 -60 c0 -56 1 -59 18 -45 100 84 142 122 142
128 0 4 -15 11 -34 17 -29 9 -40 7 -80 -15z"></path>
<path d="M2992 1601 c-12 -10 -22 -21 -22 -25 0 -3 64 -6 143 -6 140 0 144 1
167 25 l23 25 -145 0 c-127 0 -148 -2 -166 -19z"></path>
<path d="M3292 1567 c-20 -22 -22 -33 -22 -160 0 -75 4 -137 8 -137 5 0 18 10
30 23 20 22 22 33 22 160 0 75 -4 137 -8 137 -5 0 -18 -10 -30 -23z"></path>
<path d="M2940 1390 l0 -150 149 0 c127 0 150 2 155 16 8 20 8 248 0 268 -5
14 -28 16 -155 16 l-149 0 0 -150z"></path>
<path d="M1278 1485 c-21 -24 -38 -46 -38 -49 0 -3 36 -6 80 -6 44 0 80 3 80
6 0 8 -73 94 -80 94 -3 -1 -22 -20 -42 -45z"></path>
<path d="M1196 1465 c-11 -8 -16 -18 -12 -22 3 -4 16 3 29 15 24 25 12 29 -17
7z"></path>
<path d="M1425 1460 c10 -11 25 -20 34 -20 12 0 9 6 -9 20 -33 26 -48 26 -25
0z"></path>
<path d="M1151 1373 l1 -48 14 34 c15 34 13 61 -6 61 -5 0 -10 -21 -9 -47z"></path>
<path d="M1464 1407 c-5 -14 11 -67 21 -67 3 0 5 18 5 40 0 38 -15 54 -26 27z"></path>
<path d="M1232 1392 c13 -30 84 -152 88 -152 5 0 75 122 88 152 2 5 -38 8 -88
8 -50 0 -90 -3 -88 -8z"></path>
<path d="M1198 1363 c-10 -16 -40 -114 -36 -118 2 -2 32 -7 67 -11 l64 -7 -33
59 c-38 67 -56 90 -62 77z"></path>
<path d="M1423 1358 c-5 -7 -25 -40 -43 -72 l-33 -59 64 7 c35 4 65 9 67 11 5
5 -28 107 -38 118 -4 4 -11 2 -17 -5z"></path>
<path d="M1220 1202 c0 -4 18 -17 41 -29 34 -19 41 -20 46 -7 3 9 2 19 -3 23
-12 11 -84 22 -84 13z"></path>
<path d="M1375 1203 c-37 -5 -50 -17 -42 -37 5 -13 12 -12 46 7 36 19 55 40
34 36 -5 -1 -21 -4 -38 -6z"></path>
<path d="M4024 988 c-5 -7 -39 -65 -75 -128 l-66 -115 79 -3 c43 -2 112 -2
152 0 l73 3 -67 119 c-78 135 -84 143 -96 124z"></path>
<path d="M3918 958 l-58 -31 0 -73 c0 -41 3 -74 8 -74 4 0 16 17 27 38 12 20
38 67 59 105 21 37 34 67 29 67 -4 0 -34 -15 -65 -32z"></path>
<path d="M4116 923 c21 -38 47 -85 59 -105 11 -21 23 -38 28 -38 4 0 7 33 7
74 l0 73 -59 32 c-32 17 -62 31 -66 31 -4 0 10 -30 31 -67z"></path>
<path d="M3910 706 c0 -3 28 -21 61 -42 l62 -37 43 23 c23 13 53 32 66 42 22
17 20 18 -104 18 -71 0 -128 -2 -128 -4z"></path>
<path d="M5813 957 c-28 -11 -83 -68 -83 -88 0 -4 7 -10 16 -13 21 -8 133 73
134 97 0 20 -20 21 -67 4z"></path>
<path d="M5906 955 c-6 -16 97 -105 122 -105 45 0 -4 90 -60 109 -42 15 -55
14 -62 -4z"></path>
<path d="M5832 869 c-58 -44 -58 -43 -21 -126 l18 -43 65 0 64 0 21 62 c16 48
18 64 9 75 -12 14 -94 74 -100 72 -2 0 -27 -18 -56 -40z"></path>
<path d="M5720 781 c0 -42 5 -56 30 -83 44 -48 54 -24 25 61 -28 86 -55 96
-55 22z"></path>
<path d="M6033 818 c-15 -20 -43 -101 -43 -125 0 -37 17 -35 49 6 25 31 31 49
31 85 0 47 -16 61 -37 34z"></path>
<path d="M5807 656 c-4 -10 7 -19 39 -30 39 -13 49 -13 89 1 67 22 52 38 -42
41 -63 2 -82 0 -86 -12z"></path>
<path d="M2115 768 c-38 -68 -70 -129 -70 -137 0 -8 32 -29 73 -47 l72 -33 0
154 c0 84 3 160 6 169 3 9 2 16 -2 16 -5 0 -40 -55 -79 -122z"></path>
<path d="M2220 725 c0 -133 3 -165 14 -165 17 0 146 58 146 66 0 3 -31 60 -70
126 -38 66 -70 125 -70 129 0 5 -4 9 -10 9 -6 0 -10 -62 -10 -165z"></path>
<path d="M330 803 c-33 -10 -52 -24 -72 -53 -25 -36 -26 -40 -10 -49 13 -7 27
-2 57 21 22 16 48 36 58 43 10 7 17 22 15 32 -3 18 -6 18 -48 6z"></path>
<path d="M410 800 c0 -24 97 -100 128 -100 28 0 28 6 -4 51 -18 26 -40 42 -72
53 -56 20 -52 20 -52 -4z"></path>
<path d="M342 714 c-29 -20 -52 -42 -51 -48 0 -6 8 -33 18 -61 l18 -50 69 -3
70 -3 21 61 22 60 -53 40 c-29 22 -55 40 -57 40 -3 0 -28 -16 -57 -36z"></path>
<path d="M226 673 c-3 -4 -6 -25 -6 -49 0 -31 7 -51 27 -76 15 -18 28 -35 30
-37 2 -3 9 1 15 7 9 9 7 28 -10 81 -21 63 -40 89 -56 74z"></path>
<path d="M547 667 c-20 -15 -58 -122 -50 -142 8 -23 19 -18 52 22 24 29 31 47
31 80 0 47 -9 58 -33 40z"></path>
<path d="M322 508 c-19 -19 -15 -25 33 -38 57 -16 128 0 123 28 -3 14 -17 18
-73 20 -46 2 -74 -1 -83 -10z"></path>
<path d="M1260 5213 l-31 -38 46 -3 c25 -2 65 -2 90 0 l46 3 -31 38 c-23 27
-39 37 -60 37 -21 0 -37 -10 -60 -37z"></path>
<path d="M2940 5115 l0 -136 153 3 152 3 3 133 3 132 -156 0 -155 0 0 -135z"></path>
<path d="M3270 5130 c0 -66 4 -120 8 -120 5 0 18 10 30 23 19 21 22 34 22 120
l0 97 -30 0 -30 0 0 -120z"></path>
<path d="M4845 5241 c3 -5 23 -24 45 -41 l40 -32 0 41 0 41 -46 0 c-25 0 -43
-4 -39 -9z"></path>
<path d="M4960 5210 l0 -41 45 38 c25 20 45 39 45 40 0 2 -20 3 -45 3 l-45 0
0 -40z"></path>
<path d="M6675 5240 c45 -11 105 -11 105 0 0 6 -28 10 -67 9 -53 -1 -61 -3
-38 -9z"></path>
<path d="M6850 5240 c0 -11 50 -11 95 0 24 6 17 8 -32 9 -36 0 -63 -3 -63 -9z"></path>
<path d="M1203 5213 c-37 -18 -43 -33 -14 -33 10 0 26 11 35 25 9 14 15 25 14
24 -2 0 -18 -8 -35 -16z"></path>
<path d="M1416 5207 c18 -25 54 -37 54 -19 0 7 -21 21 -64 41 -5 2 0 -8 10
-22z"></path>
<path d="M6755 5175 c39 -24 53 -20 41 10 -3 10 -19 15 -43 15 l-38 -1 40 -24z"></path>
<path d="M6834 5185 c-12 -30 2 -34 41 -10 l40 24 -38 1 c-24 0 -40 -5 -43
-15z"></path>
<path d="M1151 5113 l1 -48 13 30 c19 40 18 65 0 65 -11 0 -15 -12 -14 -47z"></path>
<path d="M1460 5143 c1 -10 7 -31 15 -48 l13 -30 1 48 c1 35 -3 47 -14 47 -8
0 -15 -8 -15 -17z"></path>
<path d="M1230 5140 c0 -13 83 -160 90 -160 7 0 90 147 90 160 0 6 -35 10 -90
10 -55 0 -90 -4 -90 -10z"></path>
<path d="M1181 5065 c-30 -79 -28 -83 27 -90 26 -3 55 -8 65 -10 9 -2 17 1 17
5 0 9 -80 150 -85 150 -2 0 -13 -25 -24 -55z"></path>
<path d="M1396 5058 c-56 -100 -56 -96 15 -86 35 4 65 10 67 13 7 6 -29 124
-39 131 -4 2 -24 -24 -43 -58z"></path>
<path d="M1210 4946 c0 -5 86 -56 94 -56 3 0 6 11 6 24 0 19 -6 24 -37 30 -45
7 -63 8 -63 2z"></path>
<path d="M1358 4943 c-22 -3 -28 -10 -28 -29 0 -13 3 -24 6 -24 8 0 94 51 94
56 0 4 -31 3 -72 -3z"></path>
<path d="M6772 4204 l-42 -49 40 -3 c22 -2 60 -2 85 0 l46 3 -44 49 -43 49
-42 -49z"></path>
<path d="M6693 4188 c-13 -6 -23 -15 -23 -20 0 -15 27 -8 45 12 20 22 12 25
-22 8z"></path>
<path d="M6915 4180 c10 -11 25 -20 34 -20 12 1 10 5 -8 20 -30 26 -49 26 -26
0z"></path>
<path d="M6640 4093 c0 -50 10 -49 28 4 8 26 8 33 -5 37 -23 9 -23 9 -23 -41z"></path>
<path d="M6957 4133 c-7 -11 16 -83 26 -83 13 0 3 83 -10 87 -6 2 -13 0 -16
-4z"></path>
<path d="M6752 4062 c67 -118 58 -116 106 -33 23 40 42 77 42 82 0 5 -41 9
-91 9 l-90 0 33 -58z"></path>
<path d="M6671 4028 c-11 -34 -19 -63 -18 -65 7 -7 127 -15 127 -9 0 12 -74
136 -81 136 -4 0 -17 -28 -28 -62z"></path>
<path d="M6886 4025 c-20 -36 -36 -68 -36 -72 0 -5 120 4 126 10 5 5 -41 127
-48 127 -3 0 -22 -29 -42 -65z"></path>
<path d="M6720 3919 c0 -5 18 -18 41 -29 l41 -21 -4 23 c-2 18 -11 24 -40 29
-21 3 -38 2 -38 -2z"></path>
<path d="M6834 3905 c-12 -30 2 -34 41 -10 l40 24 -38 1 c-24 0 -40 -5 -43
-15z"></path>
<path d="M6772 2924 l-42 -49 40 -3 c22 -2 60 -2 84 0 l45 3 -42 49 -43 49
-42 -49z"></path>
<path d="M6689 2902 c-13 -11 -18 -21 -12 -25 6 -4 21 5 33 18 27 29 13 33
-21 7z"></path>
<path d="M6920 2895 c12 -13 27 -22 33 -18 6 4 1 14 -12 25 -34 26 -48 22 -21
-7z"></path>
<path d="M6640 2815 c0 -25 2 -45 5 -45 3 0 12 17 20 37 12 29 13 38 3 45 -23
14 -28 8 -28 -37z"></path>
<path d="M6962 2851 c-9 -5 -9 -16 0 -44 15 -48 28 -47 28 2 0 42 -8 54 -28
42z"></path>
<path d="M6723 2833 c2 -5 24 -42 47 -83 l43 -74 16 24 c9 13 31 50 48 82 l33
58 -96 0 c-52 0 -93 -3 -91 -7z"></path>
<path d="M6671 2748 c-11 -34 -19 -63 -18 -65 9 -8 127 -19 127 -11 0 14 -73
138 -81 138 -4 0 -17 -28 -28 -62z"></path>
<path d="M6887 2745 c-20 -35 -37 -68 -37 -73 0 -8 118 3 127 12 5 5 -40 126
-47 126 -3 0 -22 -29 -43 -65z"></path>
<path d="M6720 2637 c0 -5 68 -47 76 -47 3 0 4 10 2 23 -2 18 -10 23 -40 25
-21 2 -38 1 -38 -1z"></path>
<path d="M6837 2633 c-4 -3 -7 -15 -7 -25 0 -18 2 -18 40 2 22 11 40 23 40 25
0 8 -66 6 -73 -2z"></path>
<path d="M6770 1640 l-42 -50 87 0 87 0 -42 50 c-23 28 -43 50 -45 50 -2 0
-22 -22 -45 -50z"></path>
<path d="M6689 1622 c-13 -11 -18 -21 -12 -25 6 -4 21 5 33 18 27 29 13 33
-21 7z"></path>
<path d="M6920 1615 c12 -13 27 -22 33 -18 5 3 -1 14 -14 24 -35 27 -46 23
-19 -6z"></path>
<path d="M6640 1535 c0 -25 2 -45 5 -45 13 0 32 66 22 78 -18 23 -27 12 -27
-33z"></path>
<path d="M6962 1571 c-9 -5 -9 -16 0 -44 15 -48 28 -47 28 2 0 42 -8 54 -28
42z"></path>
<path d="M6752 1502 c18 -32 40 -69 49 -82 l16 -24 41 71 c23 39 42 76 42 82
0 7 -33 11 -91 11 l-90 0 33 -58z"></path>
<path d="M6675 1478 c-10 -29 -20 -58 -22 -65 -3 -6 8 -13 24 -16 79 -15 103
-17 103 -9 0 13 -73 142 -80 142 -3 0 -14 -24 -25 -52z"></path>
<path d="M6887 1465 c-41 -71 -45 -89 -19 -82 9 3 39 8 65 12 31 4 47 11 44
18 -2 7 -13 36 -23 65 -10 28 -21 52 -24 52 -3 0 -22 -29 -43 -65z"></path>
<path d="M6720 1356 c0 -5 65 -46 74 -46 13 0 5 38 -10 44 -18 7 -64 8 -64 2z"></path>
<path d="M6837 1353 c-8 -7 -10 -43 -3 -43 8 0 76 42 76 46 0 7 -66 4 -73 -3z"></path>
<path d="M4897 325 c-20 -42 -37 -80 -37 -85 0 -5 19 -19 42 -31 l42 -21 43
23 c24 13 43 25 43 27 0 11 -82 162 -88 162 -4 0 -24 -34 -45 -75z"></path>
<path d="M6766 355 l-37 -45 86 0 86 0 -38 45 c-20 25 -42 45 -49 45 -6 0 -28
-20 -48 -45z"></path>
<path d="M4810 310 c-38 -34 -70 -67 -70 -75 0 -18 2 -18 50 -4 32 10 41 20
68 75 18 35 30 64 27 64 -2 0 -36 -27 -75 -60z"></path>
<path d="M5000 366 c0 -3 13 -33 30 -65 22 -45 37 -61 61 -70 43 -15 49 -14
49 7 0 11 -24 38 -52 62 -29 24 -61 50 -70 58 -10 8 -18 12 -18 8z"></path>
<path d="M6697 344 c-15 -8 -25 -20 -21 -25 4 -6 16 -2 30 12 35 33 33 36 -9
13z"></path>
<path d="M6919 337 c13 -15 28 -24 32 -21 14 8 11 13 -23 30 l-33 17 24 -26z"></path>
<path d="M2992 324 c-12 -8 -22 -19 -22 -25 0 -5 60 -9 143 -9 140 0 144 1
167 25 l23 25 -144 0 c-115 0 -149 -3 -167 -16z"></path>
<path d="M3292 287 c-20 -21 -22 -34 -22 -155 0 -120 2 -132 18 -132 37 0 42
19 42 167 0 79 -4 143 -8 143 -5 0 -18 -10 -30 -23z"></path>
<path d="M6640 255 c0 -54 11 -58 26 -10 7 24 8 37 0 45 -19 19 -26 10 -26
-35z"></path>
<path d="M6963 289 c-12 -12 4 -79 19 -79 11 0 11 77 0 84 -5 3 -13 1 -19 -5z"></path>
<path d="M6755 213 c59 -106 57 -106 104 -25 23 39 41 75 41 81 0 7 -33 11
-91 11 l-91 0 37 -67z"></path>
<path d="M2940 130 l0 -130 155 0 155 0 0 130 0 130 -155 0 -155 0 0 -130z"></path>
<path d="M1282 207 c-23 -24 -42 -46 -42 -50 0 -4 36 -7 80 -7 44 0 80 3 80 8
-1 4 -18 26 -39 49 l-38 42 -41 -42z"></path>
<path d="M6672 188 c-25 -68 -21 -77 33 -78 17 0 40 -3 53 -6 12 -4 22 -2 22
4 0 13 -73 142 -81 142 -3 0 -15 -28 -27 -62z"></path>
<path d="M6887 185 c-20 -35 -37 -69 -37 -75 0 -10 18 -9 102 6 l26 5 -19 57
c-11 31 -23 60 -27 64 -4 4 -25 -21 -45 -57z"></path>
<path d="M5006 191 l-46 -26 0 -59 c0 -67 -9 -69 98 23 34 30 62 57 62 61 0 4
-15 11 -34 17 -29 9 -40 7 -80 -16z"></path>
<path d="M4788 203 c-10 -2 -18 -8 -18 -13 0 -9 143 -140 154 -140 3 0 6 26 6
58 l0 58 -45 22 c-45 22 -62 24 -97 15z"></path>
<path d="M1198 184 c-32 -17 -35 -24 -10 -24 9 0 23 9 30 20 14 24 15 23 -20
4z"></path>
<path d="M1422 180 c7 -11 22 -20 33 -20 18 0 18 2 -5 20 -32 25 -43 25 -28 0z"></path>
<path d="M1151 93 l1 -48 14 34 c15 34 13 61 -6 61 -5 0 -10 -21 -9 -47z"></path>
<path d="M1464 127 c-5 -14 11 -67 21 -67 3 0 5 18 5 40 0 38 -15 54 -26 27z"></path>
<path d="M1232 112 c2 -4 16 -31 32 -60 24 -43 34 -52 57 -52 22 0 32 9 58 55
17 30 31 57 31 60 0 3 -41 5 -91 5 -50 0 -89 -3 -87 -8z"></path>
<path d="M1191 68 c-26 -70 -26 -68 24 -68 l45 0 -20 39 c-25 51 -38 58 -49
29z"></path>
<path d="M1422 78 c-5 -7 -17 -28 -26 -45 l-17 -33 46 0 c50 0 50 -2 24 68
-10 25 -13 27 -27 10z"></path>
<path d="M6965 75 c-11 -7 -42 -27 -70 -44 l-50 -31 78 0 77 0 0 45 c0 48 -4
51 -35 30z"></path>
<path d="M6745 55 c49 -30 55 -30 55 -6 0 22 -19 31 -63 31 l-32 0 40 -25z"></path>
<path d="M6843 73 c-13 -5 -19 -43 -7 -43 9 0 74 41 74 46 0 6 -52 4 -67 -3z"></path>
</g>
</svg>